# xmcd
#
# Track frame offsets:
#	150
#	23457
#	40841
#	62418
#	85368
#	102803
#	118567
#	136394
#	158611
#	176948
#	203725
#	221921
#	238133
#	256400
#	278422
#	297136
#	314866
#
# Disc length: 4439 seconds
#
# Revision: 0
# Processed by: cddbd v1.5.2PL0 Copyright (c) Steve Scherf et al.
# Submitted via: EasyCDDAExtractor 5.0.2.1
#
DISCID=f3115511
DTITLE=Elton John - Love Songs
DYEAR=2006
DGENRE=Ballad
TTITLE0=Sacrifice 
TTITLE1=Candle In The Wind
TTITLE2=I Guess That's Why They Call It The Blues
TTITLE3=Don't let The Sun Go Down On Me
TTITLE4=Sorry Seems To Be The Hardest Word
TTITLE5=Blue Eyes
TTITLE6=Daniel
TTITLE7=Nikita
TTITLE8=Your Song
TTITLE9=The One
TTITLE10=Someone Saved My Life Tonight
TTITLE11=True Love
TTITLE12=Can You Feel The Love Tonight
TTITLE13=Circle Of Life
TTITLE14=Blessed
TTITLE15=Please
TTITLE16=Song For Guy
EXTD=
EXTT0=
EXTT1=
EXTT2=
EXTT3=
EXTT4=
EXTT5=
EXTT6=
EXTT7=
EXTT8=
EXTT9=
EXTT10=
EXTT11=
EXTT12=
EXTT13=
EXTT14=
EXTT15=
EXTT16=
PLAYORDER=
